<svg width="26" height="27" viewBox="0 0 26 27" fill="none" xmlns="http://www.w3.org/2000/svg">
<path d="M8.99083 8.78608C8.83782 8.91508 8.64282 8.98108 8.44482 8.96308C8.24681 8.94808 8.06081 8.85508 7.9318 8.70507C7.8028 8.55207 7.7398 8.35707 7.7548 8.15906C7.7698 7.96106 7.8628 7.77506 8.01581 7.64605L9.00283 6.80304C9.69884 6.20902 10.4969 5.75002 11.3579 5.44701C12.2009 5.15 13.0889 5 13.9799 5C14.9789 5 15.966 5.186 16.893 5.55201C17.841 5.92402 18.702 6.48803 19.425 7.20804C19.425 7.20804 19.425 7.20804 19.428 7.20804L19.494 7.27705C21.0181 8.80108 21.8731 10.8681 21.8731 13.0222C21.8731 15.1762 21.0181 17.2432 19.494 18.7643L17.784 20.4773C17.184 21.0773 16.368 21.4133 15.522 21.4133C14.6729 21.4133 13.8599 21.0773 13.2599 20.4773C12.6599 19.8773 12.3239 19.0643 12.3239 18.2153C12.3239 17.3692 12.6599 16.5532 13.2599 15.9532L14.9939 14.2192C15.312 13.9012 15.489 13.4722 15.489 13.0222C15.489 12.5722 15.312 12.1401 14.9939 11.8221L14.9909 11.8191C14.6729 11.5011 14.2409 11.3241 13.7879 11.3241C13.3379 11.3241 12.9059 11.5011 12.5879 11.8191L10.7339 13.6762C9.53084 14.8792 8.85282 16.5142 8.85282 18.2153C8.85282 18.8723 8.95483 19.5263 9.14983 20.1503C9.20983 20.3393 9.19183 20.5463 9.09883 20.7233C9.00883 20.9003 8.84982 21.0323 8.66082 21.0923C8.46882 21.1523 8.26481 21.1313 8.08781 21.0413C7.9108 20.9483 7.7788 20.7893 7.7188 20.6003C7.4758 19.8293 7.35279 19.0253 7.35279 18.2153C7.35279 16.1152 8.18981 14.0992 9.67184 12.6142L11.5289 10.7601C12.1289 10.1601 12.9419 9.8241 13.7879 9.8241C14.6369 9.8241 15.45 10.1601 16.05 10.7601L16.053 10.7631H16.056C16.653 11.3631 16.989 12.1761 16.989 13.0222C16.989 13.8682 16.653 14.6812 16.056 15.2812H16.053L14.3189 17.0152C14.0009 17.3332 13.8239 17.7653 13.8239 18.2153C13.8239 18.6653 14.0009 19.0973 14.3189 19.4183C14.6369 19.7363 15.0719 19.9133 15.522 19.9133C15.972 19.9133 16.404 19.7363 16.722 19.4183L18.435 17.7053C19.677 16.4632 20.3731 14.7772 20.3731 13.0222C20.3731 11.2671 19.677 9.58109 18.435 8.33907L18.366 8.27007C17.79 7.69705 17.1 7.24704 16.344 6.94704C15.591 6.65003 14.7899 6.50003 13.9799 6.50003C13.2569 6.50003 12.5399 6.62003 11.8559 6.86004C11.1689 7.10304 10.5329 7.46905 9.97785 7.94306L8.99083 8.78608Z" fill="url(#paint0_linear_336_6402)"/>
<path d="M8.99083 8.78608C8.83782 8.91508 8.64282 8.98108 8.44482 8.96308C8.24681 8.94808 8.06081 8.85508 7.9318 8.70507C7.8028 8.55207 7.7398 8.35707 7.7548 8.15906C7.7698 7.96106 7.8628 7.77506 8.01581 7.64605L9.00283 6.80304C9.69884 6.20902 10.4969 5.75002 11.3579 5.44701C12.2009 5.15 13.0889 5 13.9799 5C14.9789 5 15.966 5.186 16.893 5.55201C17.841 5.92402 18.702 6.48803 19.425 7.20804C19.425 7.20804 19.425 7.20804 19.428 7.20804L19.494 7.27705C21.0181 8.80108 21.8731 10.8681 21.8731 13.0222C21.8731 15.1762 21.0181 17.2432 19.494 18.7643L17.784 20.4773C17.184 21.0773 16.368 21.4133 15.522 21.4133C14.6729 21.4133 13.8599 21.0773 13.2599 20.4773C12.6599 19.8773 12.3239 19.0643 12.3239 18.2153C12.3239 17.3692 12.6599 16.5532 13.2599 15.9532L14.9939 14.2192C15.312 13.9012 15.489 13.4722 15.489 13.0222C15.489 12.5722 15.312 12.1401 14.9939 11.8221L14.9909 11.8191C14.6729 11.5011 14.2409 11.3241 13.7879 11.3241C13.3379 11.3241 12.9059 11.5011 12.5879 11.8191L10.7339 13.6762C9.53084 14.8792 8.85282 16.5142 8.85282 18.2153C8.85282 18.8723 8.95483 19.5263 9.14983 20.1503C9.20983 20.3393 9.19183 20.5463 9.09883 20.7233C9.00883 20.9003 8.84982 21.0323 8.66082 21.0923C8.46882 21.1523 8.26481 21.1313 8.08781 21.0413C7.9108 20.9483 7.7788 20.7893 7.7188 20.6003C7.4758 19.8293 7.35279 19.0253 7.35279 18.2153C7.35279 16.1152 8.18981 14.0992 9.67184 12.6142L11.5289 10.7601C12.1289 10.1601 12.9419 9.8241 13.7879 9.8241C14.6369 9.8241 15.45 10.1601 16.05 10.7601L16.053 10.7631H16.056C16.653 11.3631 16.989 12.1761 16.989 13.0222C16.989 13.8682 16.653 14.6812 16.056 15.2812H16.053L14.3189 17.0152C14.0009 17.3332 13.8239 17.7653 13.8239 18.2153C13.8239 18.6653 14.0009 19.0973 14.3189 19.4183C14.6369 19.7363 15.0719 19.9133 15.522 19.9133C15.972 19.9133 16.404 19.7363 16.722 19.4183L18.435 17.7053C19.677 16.4632 20.3731 14.7772 20.3731 13.0222C20.3731 11.2671 19.677 9.58109 18.435 8.33907L18.366 8.27007C17.79 7.69705 17.1 7.24704 16.344 6.94704C15.591 6.65003 14.7899 6.50003 13.9799 6.50003C13.2569 6.50003 12.5399 6.62003 11.8559 6.86004C11.1689 7.10304 10.5329 7.46905 9.97785 7.94306L8.99083 8.78608Z" fill="url(#paint1_linear_336_6402)"/>
<path d="M6.51878 17.0752C6.49178 17.2732 6.38677 17.4502 6.23077 17.5733C6.07177 17.6933 5.87076 17.7443 5.67576 17.7203C5.47776 17.6933 5.29775 17.5883 5.17775 17.4292C5.05775 17.2732 5.00375 17.0722 5.03075 16.8742C5.18375 15.7372 5.52576 14.6332 6.03577 13.6042C6.57578 12.5272 7.28979 11.5491 8.14781 10.7061L9.87884 8.99908C9.87884 8.99908 9.87884 8.99908 9.87884 8.99608C10.9289 7.96706 12.3419 7.38805 13.8119 7.38805C15.291 7.38805 16.71 7.97306 17.76 9.01408C18.825 10.0761 19.422 11.5221 19.422 13.0252C19.422 14.5282 18.825 15.9742 17.76 17.0362L16.05 18.7463C15.912 18.8873 15.72 18.9653 15.522 18.9653C15.321 18.9653 15.1319 18.8873 14.9909 18.7463C14.8499 18.6053 14.7719 18.4163 14.7719 18.2153C14.7719 18.0173 14.8499 17.8253 14.9909 17.6873L16.701 15.9772C17.484 15.1942 17.922 14.1322 17.922 13.0252C17.922 11.9181 17.484 10.8591 16.701 10.0791C15.933 9.31409 14.8949 8.88808 13.8119 8.88808C12.7349 8.88808 11.6999 9.31109 10.9319 10.0671L9.20083 11.7741C8.45982 12.5031 7.8448 13.3462 7.37979 14.2732C6.94179 15.1552 6.65078 16.1002 6.51878 17.0752Z" fill="url(#paint2_linear_336_6402)"/>
<path d="M6.51878 17.0752C6.49178 17.2732 6.38677 17.4502 6.23077 17.5733C6.07177 17.6933 5.87076 17.7443 5.67576 17.7203C5.47776 17.6933 5.29775 17.5883 5.17775 17.4292C5.05775 17.2732 5.00375 17.0722 5.03075 16.8742C5.18375 15.7372 5.52576 14.6332 6.03577 13.6042C6.57578 12.5272 7.28979 11.5491 8.14781 10.7061L9.87884 8.99908C9.87884 8.99908 9.87884 8.99908 9.87884 8.99608C10.9289 7.96706 12.3419 7.38805 13.8119 7.38805C15.291 7.38805 16.71 7.97306 17.76 9.01408C18.825 10.0761 19.422 11.5221 19.422 13.0252C19.422 14.5282 18.825 15.9742 17.76 17.0362L16.05 18.7463C15.912 18.8873 15.72 18.9653 15.522 18.9653C15.321 18.9653 15.1319 18.8873 14.9909 18.7463C14.8499 18.6053 14.7719 18.4163 14.7719 18.2153C14.7719 18.0173 14.8499 17.8253 14.9909 17.6873L16.701 15.9772C17.484 15.1942 17.922 14.1322 17.922 13.0252C17.922 11.9181 17.484 10.8591 16.701 10.0791C15.933 9.31409 14.8949 8.88808 13.8119 8.88808C12.7349 8.88808 11.6999 9.31109 10.9319 10.0671L9.20083 11.7741C8.45982 12.5031 7.8448 13.3462 7.37979 14.2732C6.94179 15.1552 6.65078 16.1002 6.51878 17.0752Z" fill="url(#paint3_linear_336_6402)"/>
<path d="M13.1849 21.6173C13.3529 21.7223 13.4729 21.8903 13.5149 22.0853C13.5599 22.2803 13.5239 22.4813 13.4189 22.6494C13.3109 22.8204 13.1429 22.9374 12.9479 22.9824C12.7559 23.0244 12.5519 22.9914 12.3839 22.8834C12.0449 22.6704 11.7329 22.4213 11.4539 22.1363C10.4279 21.1043 9.85484 19.7063 9.86084 18.2543C9.86384 16.7332 10.4729 15.2722 11.5499 14.2012L13.2599 12.4911C13.4009 12.3501 13.5899 12.2721 13.7879 12.2721C13.9889 12.2721 14.1779 12.3501 14.3189 12.4911C14.4599 12.6322 14.5379 12.8242 14.5379 13.0222C14.5379 13.2202 14.4599 13.4122 14.3189 13.5532L12.6089 15.2602C12.6089 15.2632 12.6089 15.2632 12.6089 15.2632C11.8109 16.0552 11.3639 17.1322 11.3609 18.2573C11.3579 19.3133 11.7749 20.3303 12.5189 21.0803C12.7199 21.2843 12.9419 21.4643 13.1849 21.6173Z" fill="url(#paint4_linear_336_6402)"/>
<path d="M13.1849 21.6173C13.3529 21.7223 13.4729 21.8903 13.5149 22.0853C13.5599 22.2803 13.5239 22.4813 13.4189 22.6494C13.3109 22.8204 13.1429 22.9374 12.9479 22.9824C12.7559 23.0244 12.5519 22.9914 12.3839 22.8834C12.0449 22.6704 11.7329 22.4213 11.4539 22.1363C10.4279 21.1043 9.85484 19.7063 9.86084 18.2543C9.86384 16.7332 10.4729 15.2722 11.5499 14.2012L13.2599 12.4911C13.4009 12.3501 13.5899 12.2721 13.7879 12.2721C13.9889 12.2721 14.1779 12.3501 14.3189 12.4911C14.4599 12.6322 14.5379 12.8242 14.5379 13.0222C14.5379 13.2202 14.4599 13.4122 14.3189 13.5532L12.6089 15.2602C12.6089 15.2632 12.6089 15.2632 12.6089 15.2632C11.8109 16.0552 11.3639 17.1322 11.3609 18.2573C11.3579 19.3133 11.7749 20.3303 12.5189 21.0803C12.7199 21.2843 12.9419 21.4643 13.1849 21.6173Z" fill="url(#paint5_linear_336_6402)"/>
<defs>
<linearGradient id="paint0_linear_336_6402" x1="5.02393" y1="5" x2="21.8254" y2="5.89526" gradientUnits="userSpaceOnUse">
<stop stop-color="#2A113C"/>
<stop offset="1" stop-color="#311858"/>
</linearGradient>
<linearGradient id="paint1_linear_336_6402" x1="5.02393" y1="5" x2="21.8254" y2="5.89526" gradientUnits="userSpaceOnUse">
<stop stop-color="#380564"/>
<stop offset="1" stop-color="#5B2891"/>
</linearGradient>
<linearGradient id="paint2_linear_336_6402" x1="5.02393" y1="5" x2="21.8254" y2="5.89526" gradientUnits="userSpaceOnUse">
<stop stop-color="#2A113C"/>
<stop offset="1" stop-color="#311858"/>
</linearGradient>
<linearGradient id="paint3_linear_336_6402" x1="5.02393" y1="5" x2="21.8254" y2="5.89526" gradientUnits="userSpaceOnUse">
<stop stop-color="#380564"/>
<stop offset="1" stop-color="#5B2891"/>
</linearGradient>
<linearGradient id="paint4_linear_336_6402" x1="5.02393" y1="5" x2="21.8254" y2="5.89526" gradientUnits="userSpaceOnUse">
<stop stop-color="#2A113C"/>
<stop offset="1" stop-color="#311858"/>
</linearGradient>
<linearGradient id="paint5_linear_336_6402" x1="5.02393" y1="5" x2="21.8254" y2="5.89526" gradientUnits="userSpaceOnUse">
<stop stop-color="#380564"/>
<stop offset="1" stop-color="#5B2891"/>
</linearGradient>
</defs>
</svg>
