<svg width="26" height="27" viewBox="0 0 26 27" fill="none" xmlns="http://www.w3.org/2000/svg">
<path d="M12.458 2.70898H13.5413V22.209H12.458V2.70898Z" fill="#37474F"/>
<path d="M13.9842 17.752L14.7501 18.5179L9.31181 23.9562L8.5459 23.1903L13.9842 17.752Z" fill="#37474F"/>
<path d="M17.4738 23.1961L16.7079 23.9621L11.2695 18.5237L12.0354 17.7578L17.4738 23.1961Z" fill="#37474F"/>
<path d="M2.1665 4.33398H23.8332V19.5007H2.1665V4.33398Z" fill="#CFD8DC"/>
<path d="M12.2778 9.75H13.7223V16.25H12.2778V9.75Z" fill="#4CAF50"/>
<path d="M9.75 12.2773H16.25V13.7218H9.75V12.2773Z" fill="#4CAF50"/>
<path d="M1.625 3.79102H24.375V5.95768H1.625V3.79102ZM1.625 18.9577H24.375V20.041H1.625V18.9577Z" fill="#607D8B"/>
<path d="M17.0625 24.375C17.5112 24.375 17.875 24.0112 17.875 23.5625C17.875 23.1138 17.5112 22.75 17.0625 22.75C16.6138 22.75 16.25 23.1138 16.25 23.5625C16.25 24.0112 16.6138 24.375 17.0625 24.375Z" fill="#607D8B"/>
<path d="M8.9375 24.375C9.38623 24.375 9.75 24.0112 9.75 23.5625C9.75 23.1138 9.38623 22.75 8.9375 22.75C8.48877 22.75 8.125 23.1138 8.125 23.5625C8.125 24.0112 8.48877 24.375 8.9375 24.375Z" fill="#607D8B"/>
</svg>
