<svg width="26" height="27" viewBox="0 0 26 27" fill="none" xmlns="http://www.w3.org/2000/svg">
<path d="M8.26612 23L2.86621 18.6008L5.96144 15.5648C6.78777 14.751 7.83499 14.1954 8.97432 13.9662C10.1137 13.737 11.2954 13.8442 12.3744 14.2747H16.1846C16.5638 14.2747 16.9275 14.4247 17.1956 14.6916C17.4638 14.9585 17.6144 15.3206 17.6144 15.6981C17.6144 16.0756 17.4638 16.4376 17.1956 16.7046C16.9275 16.9715 16.5638 17.1215 16.1846 17.1215H13.234C13.1086 17.1215 12.9883 17.1711 12.8996 17.2594C12.8108 17.3477 12.761 17.4675 12.761 17.5924C12.761 17.7173 12.8108 17.837 12.8996 17.9253C12.9883 18.0136 13.1086 18.0633 13.234 18.0633H16.5777C16.8156 18.0632 17.0509 18.013 17.2679 17.9159C17.485 17.8188 17.6789 17.677 17.8369 17.4999L21.4419 13.4082C21.7039 13.1211 22.0687 12.9482 22.4577 12.9266C22.8467 12.905 23.2286 13.0366 23.5209 13.2929C23.8133 13.5493 23.9927 13.9097 24.0204 14.2966C24.048 14.6834 23.9218 15.0656 23.6688 15.3605L19.1675 20.5768C18.836 20.9549 18.4269 21.2581 17.9679 21.4658C17.5089 21.6734 17.0106 21.7809 16.5064 21.7809H9.48002L8.26612 23ZM7.30278 10.6796V8.766C7.30562 8.50042 7.41361 8.24667 7.60328 8.05988C7.79295 7.87308 8.04899 7.76831 8.3158 7.76833H14.2082C14.4775 6.87506 15.0607 6.10804 15.8511 5.60736C16.6416 5.10667 17.5866 4.90573 18.5135 5.04123C19.4405 5.17674 20.2876 5.63964 20.9 6.3454C21.5125 7.05116 21.8495 7.95269 21.8495 8.88533C21.8495 9.81798 21.5125 10.7195 20.9 11.4253C20.2876 12.131 19.4405 12.5939 18.5135 12.7294C17.5866 12.8649 16.6416 12.664 15.8511 12.1633C15.0607 11.6626 14.4775 10.8956 14.2082 10.0023H12.6033V10.6882C12.6097 10.8244 12.5882 10.9605 12.5402 11.0882C12.4922 11.2159 12.4186 11.3326 12.324 11.4312C12.2295 11.5298 12.1158 11.6083 11.9898 11.6619C11.8639 11.7156 11.7284 11.7432 11.5914 11.7432C11.4544 11.7432 11.3189 11.7156 11.1929 11.6619C11.067 11.6083 10.9533 11.5298 10.8587 11.4312C10.7641 11.3326 10.6906 11.2159 10.6426 11.0882C10.5946 10.9605 10.5731 10.8244 10.5794 10.6882V9.99374H9.32666V10.6796C9.33299 10.8158 9.3115 10.9519 9.26349 11.0796C9.21549 11.2073 9.14197 11.324 9.04738 11.4226C8.95279 11.5212 8.8391 11.5997 8.71317 11.6533C8.58724 11.707 8.45169 11.7346 8.31472 11.7346C8.17775 11.7346 8.0422 11.707 7.91628 11.6533C7.79035 11.5997 7.67665 11.5212 7.58206 11.4226C7.48747 11.324 7.41395 11.2073 7.36595 11.0796C7.31794 10.9519 7.29645 10.8158 7.30278 10.6796ZM16.353 8.89071C16.353 9.20285 16.446 9.50798 16.6202 9.76752C16.7944 10.0271 17.042 10.2293 17.3317 10.3488C17.6214 10.4682 17.9402 10.4995 18.2477 10.4386C18.5553 10.3777 18.8378 10.2274 19.0595 10.0067C19.2812 9.78595 19.4322 9.50474 19.4934 9.1986C19.5546 8.89246 19.5232 8.57513 19.4032 8.28675C19.2832 7.99837 19.08 7.75189 18.8193 7.57847C18.5585 7.40506 18.252 7.3125 17.9384 7.3125C17.5181 7.31307 17.1152 7.47952 16.818 7.77537C16.5208 8.07122 16.3536 8.47232 16.353 8.89071Z" fill="url(#paint0_linear_336_6395)"/>
<path d="M8.26612 23L2.86621 18.6008L5.96144 15.5648C6.78777 14.751 7.83499 14.1954 8.97432 13.9662C10.1137 13.737 11.2954 13.8442 12.3744 14.2747H16.1846C16.5638 14.2747 16.9275 14.4247 17.1956 14.6916C17.4638 14.9585 17.6144 15.3206 17.6144 15.6981C17.6144 16.0756 17.4638 16.4376 17.1956 16.7046C16.9275 16.9715 16.5638 17.1215 16.1846 17.1215H13.234C13.1086 17.1215 12.9883 17.1711 12.8996 17.2594C12.8108 17.3477 12.761 17.4675 12.761 17.5924C12.761 17.7173 12.8108 17.837 12.8996 17.9253C12.9883 18.0136 13.1086 18.0633 13.234 18.0633H16.5777C16.8156 18.0632 17.0509 18.013 17.2679 17.9159C17.485 17.8188 17.6789 17.677 17.8369 17.4999L21.4419 13.4082C21.7039 13.1211 22.0687 12.9482 22.4577 12.9266C22.8467 12.905 23.2286 13.0366 23.5209 13.2929C23.8133 13.5493 23.9927 13.9097 24.0204 14.2966C24.048 14.6834 23.9218 15.0656 23.6688 15.3605L19.1675 20.5768C18.836 20.9549 18.4269 21.2581 17.9679 21.4658C17.5089 21.6734 17.0106 21.7809 16.5064 21.7809H9.48002L8.26612 23ZM7.30278 10.6796V8.766C7.30562 8.50042 7.41361 8.24667 7.60328 8.05988C7.79295 7.87308 8.04899 7.76831 8.3158 7.76833H14.2082C14.4775 6.87506 15.0607 6.10804 15.8511 5.60736C16.6416 5.10667 17.5866 4.90573 18.5135 5.04123C19.4405 5.17674 20.2876 5.63964 20.9 6.3454C21.5125 7.05116 21.8495 7.95269 21.8495 8.88533C21.8495 9.81798 21.5125 10.7195 20.9 11.4253C20.2876 12.131 19.4405 12.5939 18.5135 12.7294C17.5866 12.8649 16.6416 12.664 15.8511 12.1633C15.0607 11.6626 14.4775 10.8956 14.2082 10.0023H12.6033V10.6882C12.6097 10.8244 12.5882 10.9605 12.5402 11.0882C12.4922 11.2159 12.4186 11.3326 12.324 11.4312C12.2295 11.5298 12.1158 11.6083 11.9898 11.6619C11.8639 11.7156 11.7284 11.7432 11.5914 11.7432C11.4544 11.7432 11.3189 11.7156 11.1929 11.6619C11.067 11.6083 10.9533 11.5298 10.8587 11.4312C10.7641 11.3326 10.6906 11.2159 10.6426 11.0882C10.5946 10.9605 10.5731 10.8244 10.5794 10.6882V9.99374H9.32666V10.6796C9.33299 10.8158 9.3115 10.9519 9.26349 11.0796C9.21549 11.2073 9.14197 11.324 9.04738 11.4226C8.95279 11.5212 8.8391 11.5997 8.71317 11.6533C8.58724 11.707 8.45169 11.7346 8.31472 11.7346C8.17775 11.7346 8.0422 11.707 7.91628 11.6533C7.79035 11.5997 7.67665 11.5212 7.58206 11.4226C7.48747 11.324 7.41395 11.2073 7.36595 11.0796C7.31794 10.9519 7.29645 10.8158 7.30278 10.6796ZM16.353 8.89071C16.353 9.20285 16.446 9.50798 16.6202 9.76752C16.7944 10.0271 17.042 10.2293 17.3317 10.3488C17.6214 10.4682 17.9402 10.4995 18.2477 10.4386C18.5553 10.3777 18.8378 10.2274 19.0595 10.0067C19.2812 9.78595 19.4322 9.50474 19.4934 9.1986C19.5546 8.89246 19.5232 8.57513 19.4032 8.28675C19.2832 7.99837 19.08 7.75189 18.8193 7.57847C18.5585 7.40506 18.252 7.3125 17.9384 7.3125C17.5181 7.31307 17.1152 7.47952 16.818 7.77537C16.5208 8.07122 16.3536 8.47232 16.353 8.89071Z" fill="url(#paint1_linear_336_6395)"/>
<defs>
<linearGradient id="paint0_linear_336_6395" x1="2.86621" y1="5" x2="23.9298" y2="6.40938" gradientUnits="userSpaceOnUse">
<stop stop-color="#2A113C"/>
<stop offset="1" stop-color="#311858"/>
</linearGradient>
<linearGradient id="paint1_linear_336_6395" x1="2.86621" y1="5" x2="23.9298" y2="6.40938" gradientUnits="userSpaceOnUse">
<stop stop-color="#380564"/>
<stop offset="1" stop-color="#5B2891"/>
</linearGradient>
</defs>
</svg>
