<svg width="26" height="27" viewBox="0 0 26 27" fill="none" xmlns="http://www.w3.org/2000/svg">
<path d="M1.75 5.5625H24.2498V22.4373H1.75V5.5625Z" fill="#E8EAF6"/>
<path d="M16.3747 19.625H17.9497L15.1372 16.8125L13.5622 18.3875L16.3747 21.2V19.625ZM9.62479 19.625H8.0498L10.8623 16.8125L12.4373 18.3875L9.62479 21.2V19.625Z" fill="#5C6BC0"/>
<path d="M5.6875 8.9375H20.3123V11.1875H5.6875V8.9375ZM12.9999 13.4375C11.4249 13.4375 10.1875 14.6749 10.1875 16.2499C10.1875 17.8249 11.4249 19.0624 12.9999 19.0624C14.5749 19.0624 15.8124 17.8249 15.8124 16.2499C15.8124 14.6749 14.5749 13.4375 12.9999 13.4375ZM12.9999 17.9374C12.0437 17.9374 11.3124 17.2062 11.3124 16.2499C11.3124 15.2937 12.0437 14.5624 12.9999 14.5624C13.9562 14.5624 14.6874 15.2937 14.6874 16.2499C14.6874 17.2062 13.9562 17.9374 12.9999 17.9374Z" fill="#9FA8DA"/>
<path d="M1.1875 5V22.9998H24.8123V5H1.1875ZM23.6873 20.1873C22.731 20.1873 21.9998 20.9186 21.9998 21.8748H3.99997C3.99997 20.9186 3.26873 20.1873 2.31249 20.1873V7.81247C3.26873 7.81247 3.99997 7.08123 3.99997 6.12499H21.9998C21.9998 7.08123 22.731 7.81247 23.6873 7.81247V20.1873Z" fill="#9FA8DA"/>
</svg>
