<svg width="26" height="27" viewBox="0 0 26 27" fill="none" xmlns="http://www.w3.org/2000/svg">
<path d="M3.625 1.3125H22.375V26.3125H3.625V1.3125Z" fill="#FBE9E7"/>
<path d="M16.75 21.9375H18.5L15.375 18.8125L13.625 20.5625L16.75 23.6875V21.9375ZM9.25 21.9375H7.5L10.625 18.8125L12.375 20.5625L9.25 23.6875V21.9375Z" fill="#F4511E"/>
<path d="M7.375 6.9375H18.625V9.4375H7.375V6.9375ZM7.375 11.3125H18.625V12.5625H7.375V11.3125ZM13 15.0625C11.25 15.0625 9.875 16.4375 9.875 18.1875C9.875 19.9375 11.25 21.3125 13 21.3125C14.75 21.3125 16.125 19.9375 16.125 18.1875C16.125 16.4375 14.75 15.0625 13 15.0625ZM13 20.0625C11.9375 20.0625 11.125 19.25 11.125 18.1875C11.125 17.125 11.9375 16.3125 13 16.3125C14.0625 16.3125 14.875 17.125 14.875 18.1875C14.875 19.25 14.0625 20.0625 13 20.0625Z" fill="#FF8A65"/>
<path d="M3 0.6875V26.9375H23V0.6875H3ZM21.75 23.8125C20.6875 23.8125 19.875 24.625 19.875 25.6875H6.125C6.125 24.625 5.3125 23.8125 4.25 23.8125V3.8125C5.3125 3.8125 6.125 3 6.125 1.9375H19.875C19.875 3 20.6875 3.8125 21.75 3.8125V23.8125Z" fill="#FF8A65"/>
</svg>
