<svg width="26" height="27" viewBox="0 0 26 27" fill="none" xmlns="http://www.w3.org/2000/svg">
<path d="M20.5832 16.2493C21.7798 16.2493 22.7498 15.2793 22.7498 14.0827C22.7498 12.8861 21.7798 11.916 20.5832 11.916C19.3866 11.916 18.4165 12.8861 18.4165 14.0827C18.4165 15.2793 19.3866 16.2493 20.5832 16.2493Z" fill="#FFCC80"/>
<path d="M5.41667 16.2493C6.61328 16.2493 7.58333 15.2793 7.58333 14.0827C7.58333 12.8861 6.61328 11.916 5.41667 11.916C4.22005 11.916 3.25 12.8861 3.25 14.0827C3.25 15.2793 4.22005 16.2493 5.41667 16.2493Z" fill="#FFCC80"/>
<path d="M21.125 10.2919C21.125 3.41276 4.875 5.7961 4.875 10.2919V15.7086C4.875 20.2044 8.50417 23.8336 13 23.8336C17.4958 23.8336 21.125 20.2044 21.125 15.7086V10.2919Z" fill="#FFCC80"/>
<path d="M13.0002 2.16602C8.2335 2.16602 4.3335 6.06602 4.3335 10.8327V12.7285L5.471 13.0535V10.291L16.0335 6.87852L20.4752 10.291V13.0535L21.6127 12.7285V10.8327C21.6668 6.77018 18.7418 2.16602 13.0002 2.16602Z" fill="#FFCC80"/>
<path d="M11.9165 8.66602H14.0832V18.416H11.9165V8.66602Z" fill="#4CAF50"/>
<path d="M8.125 12.457H17.875V14.6237H8.125V12.457Z" fill="#4CAF50"/>
</svg>
