<svg width="26" height="27" viewBox="0 0 26 27" fill="none" xmlns="http://www.w3.org/2000/svg">
<path d="M20.5832 16.2493C21.7798 16.2493 22.7498 15.2793 22.7498 14.0827C22.7498 12.8861 21.7798 11.916 20.5832 11.916C19.3866 11.916 18.4165 12.8861 18.4165 14.0827C18.4165 15.2793 19.3866 16.2493 20.5832 16.2493Z" fill="#FFCC80"/>
<path d="M5.41667 16.2493C6.61328 16.2493 7.58333 15.2793 7.58333 14.0827C7.58333 12.8861 6.61328 11.916 5.41667 11.916C4.22005 11.916 3.25 12.8861 3.25 14.0827C3.25 15.2793 4.22005 16.2493 5.41667 16.2493Z" fill="#FFCC80"/>
<path d="M21.125 10.2919C21.125 3.41276 4.875 5.7961 4.875 10.2919V15.7086C4.875 20.2044 8.50417 23.8336 13 23.8336C17.4958 23.8336 21.125 20.2044 21.125 15.7086V10.2919Z" fill="#FFCC80"/>
<path d="M13.0002 2.16602C8.2335 2.16602 4.3335 6.06602 4.3335 10.8327V12.7285L5.471 13.0535V10.291L16.0335 6.87852L20.4752 10.291V13.0535L21.6127 12.7285V10.8327C21.6668 6.77018 18.7418 2.16602 13.0002 2.16602Z" fill="#FFCC80"/>
<path d="M13 12.7298V6.77148L16.575 9.75065L13 12.7298Z" fill="#FF5722"/>
<path d="M15.6542 13.216C15.6542 13.3243 15.7083 13.4327 15.7083 13.541C15.7083 15.0577 14.5167 16.2493 13 16.2493C11.4833 16.2493 10.2917 15.0577 10.2917 13.541C10.2917 12.0243 11.4833 10.8327 13 10.8327C13.3792 10.8327 13.7583 10.941 14.0833 11.0493V8.77435C13.7583 8.72018 13.3792 8.66602 13 8.66602C10.2917 8.66602 8.125 10.8327 8.125 13.541C8.125 16.2493 10.2917 18.416 13 18.416C15.7083 18.416 17.875 16.2493 17.875 13.541C17.875 12.891 17.7667 12.241 17.4958 11.6993L15.6542 13.216Z" fill="#FF5722"/>
</svg>
