<svg width="26" height="27" viewBox="0 0 26 27" fill="none" xmlns="http://www.w3.org/2000/svg">
<path d="M6.50033 14.0827C7.9961 14.0827 9.20866 12.8701 9.20866 11.3743C9.20866 9.87858 7.9961 8.66602 6.50033 8.66602C5.00455 8.66602 3.79199 9.87858 3.79199 11.3743C3.79199 12.8701 5.00455 14.0827 6.50033 14.0827Z" fill="#FFA726"/>
<path d="M1.08301 18.7953C1.08301 18.7953 2.59967 15.3828 6.49967 15.3828C10.3997 15.3828 11.9163 18.7953 11.9163 18.7953V24.4995H1.08301L1.08301 18.7953Z" fill="#009688"/>
<path d="M24.9163 18.7953C24.9163 18.7953 23.3997 15.3828 19.4997 15.3828C15.5997 15.3828 14.083 18.7953 14.083 18.7953L14.083 24.4995H24.9163V18.7953Z" fill="#448AFF"/>
<path d="M13 12.459C14.7949 12.459 16.25 11.0039 16.25 9.20898C16.25 7.41406 14.7949 5.95898 13 5.95898C11.2051 5.95898 9.75 7.41406 9.75 9.20898C9.75 11.0039 11.2051 12.459 13 12.459Z" fill="#EDA63D"/>
<path d="M19.5 18.4707C19.5 18.4707 17.7125 14.4082 13 14.4082C8.2875 14.4082 6.5 18.4707 6.5 18.4707V24.5H19.5V18.4707Z" fill="#E91E63"/>
<path d="M19.5003 14.0827C20.9961 14.0827 22.2087 12.8701 22.2087 11.3743C22.2087 9.87858 20.9961 8.66602 19.5003 8.66602C18.0046 8.66602 16.792 9.87858 16.792 11.3743C16.792 12.8701 18.0046 14.0827 19.5003 14.0827Z" fill="#FFA726"/>
<path d="M6.50033 14.0827C7.9961 14.0827 9.20866 12.8701 9.20866 11.3743C9.20866 9.87858 7.9961 8.66602 6.50033 8.66602C5.00455 8.66602 3.79199 9.87858 3.79199 11.3743C3.79199 12.8701 5.00455 14.0827 6.50033 14.0827Z" fill="#F1AEAE"/>
<path d="M19.5003 14.0827C20.9961 14.0827 22.2087 12.8701 22.2087 11.3743C22.2087 9.87858 20.9961 8.66602 19.5003 8.66602C18.0046 8.66602 16.792 9.87858 16.792 11.3743C16.792 12.8701 18.0046 14.0827 19.5003 14.0827Z" fill="#99576F"/>
</svg>
