<svg width="14" height="14" viewBox="0 0 14 14" fill="none" xmlns="http://www.w3.org/2000/svg">
<g clip-path="url(#clip0_450_14043)">
<path d="M1.73535 8.9985L8.71216 2.02344L11.9755 5.28762L4.99845 12.2627L1.73535 8.9985Z" fill="#FFCE31"/>
<path d="M13.4092 1.00625L12.9936 0.590625C12.2061 -0.196875 10.9373 -0.196875 10.1279 0.590625L8.70605 2.0125L11.9873 5.29375L13.4092 3.87188C14.1967 3.08438 14.1967 1.79375 13.4092 1.00625Z" fill="#ED4C5C"/>
<path d="M7.82715 2.91098L8.72402 2.01367L11.9878 5.27742L11.0909 6.17452L7.82715 2.91098Z" fill="#93A2AA"/>
<path d="M8.16797 3.25256L9.06484 2.35547L11.6327 4.92316L10.7354 5.82003L8.16797 3.25256Z" fill="#C7D3D8"/>
<path d="M1.72852 8.99023L0.306641 12.709L1.29102 13.6934L5.00977 12.2715L1.72852 8.99023Z" fill="#FED0AC"/>
<path d="M0.0653656 13.366C-0.131509 13.891 0.130991 14.1316 0.655991 13.9348L2.44974 13.2566L0.765366 11.5723L0.0653656 13.366" fill="#333333"/>
<path d="M1.72559 9.00649L7.81996 2.91211L8.90277 3.99492L2.8084 10.0893L1.72559 9.00649Z" fill="#FFDF85"/>
<path d="M3.91602 11.1881L10.0104 5.09375L11.0932 6.17656L4.99883 12.2709L3.91602 11.1881Z" fill="#FF8736"/>
</g>
<defs>
<clipPath id="clip0_450_14043">
<rect width="14" height="14" fill="white"/>
</clipPath>
</defs>
</svg>
