<svg width="26" height="27" viewBox="0 0 26 27" fill="none" xmlns="http://www.w3.org/2000/svg">
<path d="M5.95801 23.834H4.87467C4.54967 23.834 4.33301 23.6173 4.33301 23.2923V22.209H6.49967V23.2923C6.49967 23.6173 6.28301 23.834 5.95801 23.834ZM21.1247 23.834H20.0413C19.7163 23.834 19.4997 23.6173 19.4997 23.2923V22.209H21.6663V23.2923C21.6663 23.6173 21.4497 23.834 21.1247 23.834Z" fill="#263238"/>
<path d="M14.625 3.79102H11.375C10.4542 3.79102 9.75 4.49518 9.75 5.41602V7.04102H10.8333V5.41602C10.8333 5.09102 11.05 4.87435 11.375 4.87435H14.625C14.95 4.87435 15.1667 5.09102 15.1667 5.41602V7.04102H16.25V5.41602C16.25 4.49518 15.5458 3.79102 14.625 3.79102Z" fill="#37474F"/>
<path d="M21.667 23.2923H4.33366C3.14199 23.2923 2.16699 22.3173 2.16699 21.1257V8.12565C2.16699 6.93398 3.14199 5.95898 4.33366 5.95898H21.667C22.8587 5.95898 23.8337 6.93398 23.8337 8.12565V21.1257C23.8337 22.3173 22.8587 23.2923 21.667 23.2923Z" fill="#78909C"/>
</svg>
