<svg width="26" height="27" viewBox="0 0 26 27" fill="none" xmlns="http://www.w3.org/2000/svg">
<path d="M4.875 10.834H21.125V17.8757H4.875V10.834Z" fill="#37474F"/>
<path d="M13 21.125C17.4873 21.125 21.125 19.6699 21.125 17.875C21.125 16.0801 17.4873 14.625 13 14.625C8.51269 14.625 4.875 16.0801 4.875 17.875C4.875 19.6699 8.51269 21.125 13 21.125Z" fill="#37474F"/>
<path d="M12.5125 4.44219L0.325 9.80469C-0.108333 10.0214 -0.108333 10.6172 0.325 10.8339L12.5125 16.1964C12.8375 16.3047 13.1625 16.3047 13.4875 16.1964L25.675 10.8339C26.1083 10.6172 26.1083 10.0214 25.675 9.80469L13.4875 4.44219C13.1625 4.27969 12.8375 4.27969 12.5125 4.44219Z" fill="#78909C"/>
<path d="M23.3999 11.0492L12.5666 9.20757C12.2957 9.15341 11.9707 9.37007 11.9166 9.64091C11.8624 9.91174 12.0791 10.2367 12.3499 10.2909L22.7499 12.0242V20.0409C22.7499 20.3659 22.9666 20.5826 23.2916 20.5826C23.6166 20.5826 23.8332 20.3659 23.8332 20.0409V11.5909C23.8332 11.3201 23.6166 11.1034 23.3999 11.0492Z" fill="#37474F"/>
<path d="M23.2913 21.1237C23.8896 21.1237 24.3747 20.6387 24.3747 20.0404C24.3747 19.4421 23.8896 18.957 23.2913 18.957C22.693 18.957 22.208 19.4421 22.208 20.0404C22.208 20.6387 22.693 21.1237 23.2913 21.1237Z" fill="#37474F"/>
<path d="M24.9165 21.666C24.9165 22.5868 23.2915 24.916 23.2915 24.916C23.2915 24.916 21.6665 22.5868 21.6665 21.666C21.6665 20.7452 22.3707 20.041 23.2915 20.041C24.2123 20.041 24.9165 20.7452 24.9165 21.666Z" fill="#37474F"/>
</svg>
