<svg width="26" height="27" viewBox="0 0 26 27" fill="none" xmlns="http://www.w3.org/2000/svg">
<path d="M13.7426 11.3395C13.7843 11.1615 13.7849 10.9765 13.7443 10.7983C13.7036 10.62 13.6228 10.4532 13.5079 10.3101C13.3929 10.1669 13.2468 10.0513 13.0803 9.97171C12.9138 9.89212 12.7314 9.85065 12.5464 9.85039C12.2827 9.85051 12.0262 9.93584 11.8161 10.0934C11.7675 10.1305 11.708 10.1512 11.6465 10.1523H11.5888C11.5171 10.1523 11.4484 10.1241 11.3977 10.0741C11.3471 10.024 11.3186 9.95614 11.3186 9.88536V8.33553C11.3186 8.09437 11.4156 7.86309 11.5882 7.69257C11.7608 7.52205 11.9949 7.42625 12.239 7.42625H13.8096C13.8813 7.42625 13.95 7.39813 14.0007 7.34808C14.0513 7.29802 14.0798 7.23014 14.0798 7.15935V7.10229C14.0789 7.04155 14.0579 6.98275 14.0202 6.93479C13.8607 6.72722 13.7744 6.47383 13.7742 6.21326C13.7742 5.91868 13.8826 5.63413 14.0793 5.41275C14.2761 5.19137 14.5476 5.04828 14.8433 5.01019C15.139 4.97209 15.4386 5.04161 15.6862 5.20575C15.9338 5.36989 16.1125 5.61744 16.1889 5.90219C16.2358 6.07795 16.2415 6.26195 16.2057 6.44024C16.1699 6.61852 16.0934 6.7864 15.9821 6.93111C15.9442 6.979 15.9233 7.03784 15.9224 7.09861V7.15567C15.9224 7.19072 15.9294 7.22543 15.943 7.25781C15.9566 7.29019 15.9765 7.31961 16.0016 7.3444C16.0267 7.36918 16.0564 7.38884 16.0892 7.40225C16.122 7.41566 16.1571 7.42257 16.1926 7.42257H17.7632C18.0073 7.42257 18.2414 7.51837 18.4141 7.68889C18.5867 7.85941 18.6836 8.09069 18.6836 8.33185V9.88352C18.6836 9.9543 18.7121 10.0222 18.7628 10.0722C18.8134 10.1223 18.8821 10.1504 18.9538 10.1504H19.0115C19.073 10.1495 19.1325 10.1288 19.1811 10.0915C19.3912 9.934 19.6477 9.84867 19.9114 9.84855C20.2146 9.84185 20.5096 9.94625 20.7395 10.1416C20.9694 10.337 21.118 10.6095 21.1567 10.9067C21.1953 11.2038 21.1213 11.5046 20.9488 11.7511C20.7763 11.9975 20.5176 12.1722 20.2226 12.2414C20.0447 12.2877 19.8584 12.2934 19.678 12.258C19.4975 12.2226 19.3276 12.1471 19.1811 12.0371C19.1325 11.9998 19.073 11.9791 19.0115 11.9782H18.9538C18.9183 11.9782 18.8832 11.9851 18.8504 11.9985C18.8176 12.0119 18.7878 12.0316 18.7628 12.0564C18.7377 12.0811 18.7178 12.1106 18.7042 12.1429C18.6906 12.1753 18.6836 12.21 18.6836 12.2451V13.7967C18.6836 14.0379 18.5867 14.2692 18.4141 14.4397C18.2414 14.6102 18.0073 14.706 17.7632 14.706H12.239C11.9949 14.706 11.7608 14.6102 11.5882 14.4397C11.4156 14.2692 11.3186 14.0379 11.3186 13.7967V12.2396C11.3196 12.1694 11.3485 12.1025 11.3991 12.0532C11.4496 12.0039 11.5178 11.9763 11.5888 11.9763H11.6465C11.708 11.9771 11.7676 11.9978 11.8161 12.0352C11.9787 12.1564 12.1694 12.2354 12.3709 12.2652C12.5723 12.295 12.7781 12.2746 12.9695 12.2058C13.1609 12.137 13.3319 12.0221 13.4669 11.8715C13.6019 11.7208 13.6967 11.5392 13.7426 11.3432V11.3395ZM21.4318 14.706C21.183 14.5132 20.8687 14.4225 20.554 14.4527C20.2393 14.4828 19.9485 14.6316 19.7419 14.868L17.7111 17.1302C17.7111 17.1302 17.7111 17.1486 17.7111 17.1578C17.6838 17.6876 17.451 18.1866 17.061 18.5513C16.671 18.916 16.1539 19.1183 15.6169 19.1162H13.4202C13.3615 19.1162 13.3034 19.1048 13.2491 19.0826C13.1949 19.0604 13.1456 19.0279 13.1041 18.9868C13.0625 18.9458 13.0296 18.8971 13.0071 18.8435C12.9847 18.7899 12.9731 18.7325 12.9731 18.6745C12.9731 18.6165 12.9847 18.559 13.0071 18.5054C13.0296 18.4518 13.0625 18.4031 13.1041 18.3621C13.1456 18.3211 13.1949 18.2885 13.2491 18.2663C13.3034 18.2441 13.3615 18.2327 13.4202 18.2327H15.6169C15.9224 18.237 16.2179 18.1245 16.4414 17.9187C16.665 17.7129 16.7995 17.4297 16.8168 17.1283C16.8215 16.9759 16.7952 16.8242 16.7395 16.682C16.6838 16.5398 16.5998 16.4101 16.4924 16.3006C16.385 16.1911 16.2565 16.104 16.1144 16.0445C15.9724 15.9849 15.8197 15.9542 15.6653 15.954H12.0061L11.4118 15.7478C10.6804 15.4948 9.89171 15.4501 9.13588 15.6191C8.38005 15.788 7.6876 16.1637 7.13772 16.7031L4.42871 19.361L8.20903 23L9.2673 21.9545H15.3691C15.7754 21.9552 16.1772 21.87 16.5474 21.7046C16.9176 21.5392 17.2477 21.2974 17.5154 20.9955L21.5715 16.3939C21.6765 16.2749 21.7564 16.1364 21.8063 15.9864C21.8562 15.8365 21.8753 15.6782 21.8622 15.5208C21.8492 15.3635 21.8044 15.2103 21.7305 15.0704C21.6565 14.9304 21.555 14.8066 21.4318 14.706Z" fill="url(#paint0_linear_336_6389)"/>
<path d="M13.7426 11.3395C13.7843 11.1615 13.7849 10.9765 13.7443 10.7983C13.7036 10.62 13.6228 10.4532 13.5079 10.3101C13.3929 10.1669 13.2468 10.0513 13.0803 9.97171C12.9138 9.89212 12.7314 9.85065 12.5464 9.85039C12.2827 9.85051 12.0262 9.93584 11.8161 10.0934C11.7675 10.1305 11.708 10.1512 11.6465 10.1523H11.5888C11.5171 10.1523 11.4484 10.1241 11.3977 10.0741C11.3471 10.024 11.3186 9.95614 11.3186 9.88536V8.33553C11.3186 8.09437 11.4156 7.86309 11.5882 7.69257C11.7608 7.52205 11.9949 7.42625 12.239 7.42625H13.8096C13.8813 7.42625 13.95 7.39813 14.0007 7.34808C14.0513 7.29802 14.0798 7.23014 14.0798 7.15935V7.10229C14.0789 7.04155 14.0579 6.98275 14.0202 6.93479C13.8607 6.72722 13.7744 6.47383 13.7742 6.21326C13.7742 5.91868 13.8826 5.63413 14.0793 5.41275C14.2761 5.19137 14.5476 5.04828 14.8433 5.01019C15.139 4.97209 15.4386 5.04161 15.6862 5.20575C15.9338 5.36989 16.1125 5.61744 16.1889 5.90219C16.2358 6.07795 16.2415 6.26195 16.2057 6.44024C16.1699 6.61852 16.0934 6.7864 15.9821 6.93111C15.9442 6.979 15.9233 7.03784 15.9224 7.09861V7.15567C15.9224 7.19072 15.9294 7.22543 15.943 7.25781C15.9566 7.29019 15.9765 7.31961 16.0016 7.3444C16.0267 7.36918 16.0564 7.38884 16.0892 7.40225C16.122 7.41566 16.1571 7.42257 16.1926 7.42257H17.7632C18.0073 7.42257 18.2414 7.51837 18.4141 7.68889C18.5867 7.85941 18.6836 8.09069 18.6836 8.33185V9.88352C18.6836 9.9543 18.7121 10.0222 18.7628 10.0722C18.8134 10.1223 18.8821 10.1504 18.9538 10.1504H19.0115C19.073 10.1495 19.1325 10.1288 19.1811 10.0915C19.3912 9.934 19.6477 9.84867 19.9114 9.84855C20.2146 9.84185 20.5096 9.94625 20.7395 10.1416C20.9694 10.337 21.118 10.6095 21.1567 10.9067C21.1953 11.2038 21.1213 11.5046 20.9488 11.7511C20.7763 11.9975 20.5176 12.1722 20.2226 12.2414C20.0447 12.2877 19.8584 12.2934 19.678 12.258C19.4975 12.2226 19.3276 12.1471 19.1811 12.0371C19.1325 11.9998 19.073 11.9791 19.0115 11.9782H18.9538C18.9183 11.9782 18.8832 11.9851 18.8504 11.9985C18.8176 12.0119 18.7878 12.0316 18.7628 12.0564C18.7377 12.0811 18.7178 12.1106 18.7042 12.1429C18.6906 12.1753 18.6836 12.21 18.6836 12.2451V13.7967C18.6836 14.0379 18.5867 14.2692 18.4141 14.4397C18.2414 14.6102 18.0073 14.706 17.7632 14.706H12.239C11.9949 14.706 11.7608 14.6102 11.5882 14.4397C11.4156 14.2692 11.3186 14.0379 11.3186 13.7967V12.2396C11.3196 12.1694 11.3485 12.1025 11.3991 12.0532C11.4496 12.0039 11.5178 11.9763 11.5888 11.9763H11.6465C11.708 11.9771 11.7676 11.9978 11.8161 12.0352C11.9787 12.1564 12.1694 12.2354 12.3709 12.2652C12.5723 12.295 12.7781 12.2746 12.9695 12.2058C13.1609 12.137 13.3319 12.0221 13.4669 11.8715C13.6019 11.7208 13.6967 11.5392 13.7426 11.3432V11.3395ZM21.4318 14.706C21.183 14.5132 20.8687 14.4225 20.554 14.4527C20.2393 14.4828 19.9485 14.6316 19.7419 14.868L17.7111 17.1302C17.7111 17.1302 17.7111 17.1486 17.7111 17.1578C17.6838 17.6876 17.451 18.1866 17.061 18.5513C16.671 18.916 16.1539 19.1183 15.6169 19.1162H13.4202C13.3615 19.1162 13.3034 19.1048 13.2491 19.0826C13.1949 19.0604 13.1456 19.0279 13.1041 18.9868C13.0625 18.9458 13.0296 18.8971 13.0071 18.8435C12.9847 18.7899 12.9731 18.7325 12.9731 18.6745C12.9731 18.6165 12.9847 18.559 13.0071 18.5054C13.0296 18.4518 13.0625 18.4031 13.1041 18.3621C13.1456 18.3211 13.1949 18.2885 13.2491 18.2663C13.3034 18.2441 13.3615 18.2327 13.4202 18.2327H15.6169C15.9224 18.237 16.2179 18.1245 16.4414 17.9187C16.665 17.7129 16.7995 17.4297 16.8168 17.1283C16.8215 16.9759 16.7952 16.8242 16.7395 16.682C16.6838 16.5398 16.5998 16.4101 16.4924 16.3006C16.385 16.1911 16.2565 16.104 16.1144 16.0445C15.9724 15.9849 15.8197 15.9542 15.6653 15.954H12.0061L11.4118 15.7478C10.6804 15.4948 9.89171 15.4501 9.13588 15.6191C8.38005 15.788 7.6876 16.1637 7.13772 16.7031L4.42871 19.361L8.20903 23L9.2673 21.9545H15.3691C15.7754 21.9552 16.1772 21.87 16.5474 21.7046C16.9176 21.5392 17.2477 21.2974 17.5154 20.9955L21.5715 16.3939C21.6765 16.2749 21.7564 16.1364 21.8063 15.9864C21.8562 15.8365 21.8753 15.6782 21.8622 15.5208C21.8492 15.3635 21.8044 15.2103 21.7305 15.0704C21.6565 14.9304 21.555 14.8066 21.4318 14.706Z" fill="url(#paint1_linear_336_6389)"/>
<defs>
<linearGradient id="paint0_linear_336_6389" x1="4.42871" y1="5" x2="21.8133" y2="5.95868" gradientUnits="userSpaceOnUse">
<stop stop-color="#2A113C"/>
<stop offset="1" stop-color="#311858"/>
</linearGradient>
<linearGradient id="paint1_linear_336_6389" x1="4.42871" y1="5" x2="21.8133" y2="5.95868" gradientUnits="userSpaceOnUse">
<stop stop-color="#380564"/>
<stop offset="1" stop-color="#5B2891"/>
</linearGradient>
</defs>
</svg>
