<svg width="26" height="27" viewBox="0 0 26 27" fill="none" xmlns="http://www.w3.org/2000/svg">
<path d="M23.8332 9.74935V7.58268H18.4165V2.16602H16.2498V7.58268H14.0832V2.16602H11.9165V7.58268H9.74984V2.16602H7.58317V7.58268H2.1665V9.74935H7.58317V11.916H2.1665V14.0827H7.58317V16.2493H2.1665V18.416H7.58317V23.8327H9.74984V18.416H11.9165V23.8327H14.0832V18.416H16.2498V23.8327H18.4165V18.416H23.8332V16.2493H18.4165V14.0827H23.8332V11.916H18.4165V9.74935H23.8332Z" fill="#FF9800"/>
<path d="M4.3335 6.50065V19.5007C4.3335 20.6923 5.3085 21.6673 6.50016 21.6673H19.5002C20.6918 21.6673 21.6668 20.6923 21.6668 19.5007V6.50065C21.6668 5.30898 20.6918 4.33398 19.5002 4.33398H6.50016C5.3085 4.33398 4.3335 5.30898 4.3335 6.50065Z" fill="#4CAF50"/>
<path d="M16.7917 16.7923H9.20833C8.6125 16.7923 8.125 16.3048 8.125 15.709V10.2923C8.125 9.69648 8.6125 9.20898 9.20833 9.20898H16.7917C17.3875 9.20898 17.875 9.69648 17.875 10.2923V15.709C17.875 16.3048 17.3875 16.7923 16.7917 16.7923Z" fill="#37474F"/>
</svg>
