<svg width="26" height="27" viewBox="0 0 26 27" fill="none" xmlns="http://www.w3.org/2000/svg">
<path d="M13 24C18.5228 24 23 19.5228 23 14C23 8.47715 18.5228 4 13 4C7.47715 4 3 8.47715 3 14C3 19.5228 7.47715 24 13 24Z" fill="#00ACC1"/>
<path d="M13 22C17.4183 22 21 18.4183 21 14C21 9.58172 17.4183 6 13 6C8.58172 6 5 9.58172 5 14C5 18.4183 8.58172 22 13 22Z" fill="#EEEEEE"/>
<path d="M12 8H13V14H12V8Z" fill="black"/>
<path d="M17 17.2001L16.2004 18L13 14.8004L13.8001 14L17 17.2001Z" fill="black"/>
<path d="M13 15C13.5523 15 14 14.5523 14 14C14 13.4477 13.5523 13 13 13C12.4477 13 12 13.4477 12 14C12 14.5523 12.4477 15 13 15Z" fill="black"/>
<path d="M12.5 15C12.7761 15 13 14.7761 13 14.5C13 14.2239 12.7761 14 12.5 14C12.2239 14 12 14.2239 12 14.5C12 14.7761 12.2239 15 12.5 15Z" fill="#00ACC1"/>
</svg>
