<svg width="26" height="27" viewBox="0 0 26 27" fill="none" xmlns="http://www.w3.org/2000/svg">
<path d="M6.35657 9.63158H19.6423L18.848 21.9276C18.8117 22.4889 18.5555 23.0156 18.1317 23.4006C17.7079 23.7856 17.1483 24 16.5669 24H9.43314C8.85168 24 8.29209 23.7856 7.86829 23.4006C7.44449 23.0156 7.18834 22.4889 7.152 21.9276L6.35657 9.63158ZM21 6.31579V8.52632H5V6.31579H8.42857V5.21053C8.42857 4.62426 8.66939 4.062 9.09804 3.64745C9.5267 3.23289 10.1081 3 10.7143 3H15.2857C15.8919 3 16.4733 3.23289 16.902 3.64745C17.3306 4.062 17.5714 4.62426 17.5714 5.21053V6.31579H21ZM10.7143 6.31579H15.2857V5.21053H10.7143V6.31579Z" fill="#B3B3B3"/>
</svg>
