<svg width="26" height="27" viewBox="0 0 26 27" fill="none" xmlns="http://www.w3.org/2000/svg">
<path d="M11.8889 14.3704H5.96296L3 17.3333V6.96296C3 5.33333 4.33333 4 5.96296 4H11.8889C13.5185 4 14.8519 5.33333 14.8519 6.96296V11.4074C14.8519 13.037 13.5185 14.3704 11.8889 14.3704Z" fill="#2196F3"/>
<path d="M9.85148 10.5617H7.9935L7.68607 11.4073H6.70361L8.38114 6.96289H9.47053L11.1481 11.4073H10.1589L9.85148 10.5617ZM9.59752 9.84955L8.92249 7.99293L8.24747 9.84955H9.59752Z" fill="white"/>
<path d="M14.1111 21.0364H20.037L23 23.9993V13.629C23 11.9993 21.6667 10.666 20.037 10.666H14.1111C12.4815 10.666 11.1481 11.9993 11.1481 13.629V18.0734C11.1481 19.7031 12.4815 21.0364 14.1111 21.0364Z" fill="#FF5722"/>
<path d="M20.0367 14.116L19.5503 13.6417C19.4332 13.6738 19.0945 13.6994 18.9221 13.6994C18.6019 13.6994 15.9908 13.6994 15.6029 13.6994C15.3504 13.6994 15.0917 13.6674 14.8516 13.6289V14.5262C15.141 14.4942 15.3504 14.4814 15.6029 14.4814C15.9908 14.4814 18.4418 14.4814 18.8174 14.4814C18.6573 14.7954 18.177 15.3594 17.6782 15.6735L18.3186 16.2055C18.9283 15.7568 19.5133 14.9428 19.8027 14.4429C19.8582 14.3532 19.9752 14.1993 20.0367 14.116ZM17.5304 14.9749H16.6374C16.6682 15.1864 16.6744 15.353 16.6744 15.5581C16.6744 16.6093 16.5266 17.2823 15.7507 17.8463C15.5228 18.0257 15.3011 18.1347 15.0979 18.2052L15.8184 18.8141C17.4934 17.8719 17.5304 16.5644 17.5304 14.9749Z" fill="white"/>
</svg>
