<svg width="26" height="27" viewBox="0 0 26 27" fill="none" xmlns="http://www.w3.org/2000/svg">
<path d="M18.625 16.25H15.25C14.6313 16.25 14.125 15.7437 14.125 15.125C14.125 14.5063 14.6313 14 15.25 14H18.625C18.625 14 22 10.2383 22 8.375C22 6.51172 20.4883 5 18.625 5C16.7617 5 15.25 6.51172 15.25 8.375C15.25 9.27148 16.0305 10.6039 16.8426 11.75H15.25C13.3902 11.75 11.875 13.2652 11.875 15.125C11.875 16.9848 13.3902 18.5 15.25 18.5H18.625C19.2437 18.5 19.75 19.0063 19.75 19.625C19.75 20.2437 19.2437 20.75 18.625 20.75H10.5215C9.95898 21.6219 9.3332 22.427 8.85859 23H18.625C20.4848 23 22 21.4848 22 19.625C22 17.7652 20.4848 16.25 18.625 16.25ZM18.625 7.25C19.2473 7.25 19.75 7.75273 19.75 8.375C19.75 8.99727 19.2473 9.5 18.625 9.5C18.0027 9.5 17.5 8.99727 17.5 8.375C17.5 7.75273 18.0027 7.25 18.625 7.25ZM7.375 14C5.51172 14 4 15.5117 4 17.375C4 19.2383 7.375 23 7.375 23C7.375 23 10.75 19.2383 10.75 17.375C10.75 15.5117 9.23828 14 7.375 14ZM7.375 18.5C6.75273 18.5 6.25 17.9973 6.25 17.375C6.25 16.7527 6.75273 16.25 7.375 16.25C7.99727 16.25 8.5 16.7527 8.5 17.375C8.5 17.9973 7.99727 18.5 7.375 18.5Z" fill="url(#paint0_linear_248_4273)"/>
<defs>
<linearGradient id="paint0_linear_248_4273" x1="4" y1="5" x2="22" y2="5" gradientUnits="userSpaceOnUse">
<stop stop-color="#1B89B4"/>
<stop offset="1" stop-color="#65C6EC"/>
</linearGradient>
</defs>
</svg>
