<svg width="26" height="27" viewBox="0 0 26 27" fill="none" xmlns="http://www.w3.org/2000/svg">
<path d="M17.4762 7.52632C17.3511 7.52607 17.2271 7.5504 17.1114 7.59792C16.9958 7.64544 16.8907 7.71522 16.8022 7.80324C16.7137 7.89126 16.6436 7.9958 16.5958 8.11085C16.548 8.2259 16.5236 8.34921 16.5238 8.47369V16.0526C16.5246 16.3694 16.4293 16.6791 16.2503 16.9412C16.0713 17.2032 15.817 17.4054 15.5207 17.5214C15.2243 17.6374 14.8996 17.6618 14.5891 17.5913C14.2786 17.5208 13.9968 17.3587 13.7803 17.1263C13.6118 17.4337 13.3451 17.6764 13.0224 17.8161C12.6997 17.9557 12.3393 17.9843 11.9984 17.8973C11.6575 17.8104 11.3555 17.6128 11.1402 17.3359C10.9248 17.059 10.8085 16.7185 10.8095 16.3684V15.3926C10.7047 15.4108 10.5985 15.4203 10.4921 15.4211H10.1746C10.0904 15.4211 10.0097 15.4543 9.95012 15.5135C9.89059 15.5728 9.85714 15.6531 9.85714 15.7368V17C9.85714 17.0838 9.8237 17.1641 9.76416 17.2233C9.70463 17.2825 9.62388 17.3158 9.53968 17.3158C9.45549 17.3158 9.37474 17.2825 9.3152 17.2233C9.25567 17.1641 9.22222 17.0838 9.22222 17V15.7368C9.22222 15.4856 9.32256 15.2446 9.50117 15.067C9.67977 14.8893 9.92202 14.7895 10.1746 14.7895H10.4921C10.6667 14.7893 10.8394 14.754 11 14.6859C11.2259 14.5864 11.4181 14.4239 11.5533 14.2182C11.6885 14.0124 11.7609 13.7721 11.7619 13.5263V13.2105C11.7619 13.1268 11.7285 13.0465 11.6689 12.9872C11.6094 12.928 11.5286 12.8947 11.4444 12.8947H8.90476C8.81819 12.8935 8.73169 12.9001 8.64635 12.9146C8.19121 12.9781 7.77428 13.2025 7.47193 13.5469C7.16957 13.8912 7.00204 14.3323 7 14.7895V17.3158C7 18.8233 7.60204 20.2691 8.67368 21.3351C9.74531 22.4011 11.1988 23 12.7143 23C14.2298 23 15.6833 22.4011 16.7549 21.3351C17.8265 20.2691 18.4286 18.8233 18.4286 17.3158V8.47369C18.4286 8.22243 18.3282 7.98146 18.1496 7.80379C17.971 7.62613 17.7288 7.52632 17.4762 7.52632Z" fill="url(#paint0_linear_336_6385)"/>
<path d="M17.4762 7.52632C17.3511 7.52607 17.2271 7.5504 17.1114 7.59792C16.9958 7.64544 16.8907 7.71522 16.8022 7.80324C16.7137 7.89126 16.6436 7.9958 16.5958 8.11085C16.548 8.2259 16.5236 8.34921 16.5238 8.47369V16.0526C16.5246 16.3694 16.4293 16.6791 16.2503 16.9412C16.0713 17.2032 15.817 17.4054 15.5207 17.5214C15.2243 17.6374 14.8996 17.6618 14.5891 17.5913C14.2786 17.5208 13.9968 17.3587 13.7803 17.1263C13.6118 17.4337 13.3451 17.6764 13.0224 17.8161C12.6997 17.9557 12.3393 17.9843 11.9984 17.8973C11.6575 17.8104 11.3555 17.6128 11.1402 17.3359C10.9248 17.059 10.8085 16.7185 10.8095 16.3684V15.3926C10.7047 15.4108 10.5985 15.4203 10.4921 15.4211H10.1746C10.0904 15.4211 10.0097 15.4543 9.95012 15.5135C9.89059 15.5728 9.85714 15.6531 9.85714 15.7368V17C9.85714 17.0838 9.8237 17.1641 9.76416 17.2233C9.70463 17.2825 9.62388 17.3158 9.53968 17.3158C9.45549 17.3158 9.37474 17.2825 9.3152 17.2233C9.25567 17.1641 9.22222 17.0838 9.22222 17V15.7368C9.22222 15.4856 9.32256 15.2446 9.50117 15.067C9.67977 14.8893 9.92202 14.7895 10.1746 14.7895H10.4921C10.6667 14.7893 10.8394 14.754 11 14.6859C11.2259 14.5864 11.4181 14.4239 11.5533 14.2182C11.6885 14.0124 11.7609 13.7721 11.7619 13.5263V13.2105C11.7619 13.1268 11.7285 13.0465 11.6689 12.9872C11.6094 12.928 11.5286 12.8947 11.4444 12.8947H8.90476C8.81819 12.8935 8.73169 12.9001 8.64635 12.9146C8.19121 12.9781 7.77428 13.2025 7.47193 13.5469C7.16957 13.8912 7.00204 14.3323 7 14.7895V17.3158C7 18.8233 7.60204 20.2691 8.67368 21.3351C9.74531 22.4011 11.1988 23 12.7143 23C14.2298 23 15.6833 22.4011 16.7549 21.3351C17.8265 20.2691 18.4286 18.8233 18.4286 17.3158V8.47369C18.4286 8.22243 18.3282 7.98146 18.1496 7.80379C17.971 7.62613 17.7288 7.52632 17.4762 7.52632Z" fill="url(#paint1_linear_336_6385)"/>
<path d="M15.5714 15.7368V11C15.5714 10.7487 15.4711 10.5078 15.2925 10.3301C15.1139 10.1524 14.8716 10.0526 14.619 10.0526C14.3665 10.0526 14.1242 10.1524 13.9456 10.3301C13.767 10.5078 13.6667 10.7487 13.6667 11V15.7368C13.6667 15.9881 13.767 16.2291 13.9456 16.4067C14.1242 16.5844 14.3665 16.6842 14.619 16.6842C14.8716 16.6842 15.1139 16.5844 15.2925 16.4067C15.4711 16.2291 15.5714 15.9881 15.5714 15.7368Z" fill="url(#paint2_linear_336_6385)"/>
<path d="M15.5714 15.7368V11C15.5714 10.7487 15.4711 10.5078 15.2925 10.3301C15.1139 10.1524 14.8716 10.0526 14.619 10.0526C14.3665 10.0526 14.1242 10.1524 13.9456 10.3301C13.767 10.5078 13.6667 10.7487 13.6667 11V15.7368C13.6667 15.9881 13.767 16.2291 13.9456 16.4067C14.1242 16.5844 14.3665 16.6842 14.619 16.6842C14.8716 16.6842 15.1139 16.5844 15.2925 16.4067C15.4711 16.2291 15.5714 15.9881 15.5714 15.7368Z" fill="url(#paint3_linear_336_6385)"/>
<path d="M12.0597 13.4758C12.0555 13.5045 12.0479 13.532 12.0425 13.5604C12.0314 13.6182 12.02 13.676 12.0038 13.7325C11.9943 13.7641 11.9819 13.7957 11.9721 13.8273C11.9546 13.8778 11.9365 13.9277 11.9149 13.976C11.9003 14.0076 11.8832 14.0392 11.8673 14.0707C11.8438 14.1162 11.8197 14.1611 11.7927 14.2046C11.7733 14.2362 11.7527 14.2653 11.7317 14.2953C11.7025 14.3363 11.6724 14.3764 11.64 14.4153C11.6165 14.4437 11.5924 14.4715 11.567 14.4983C11.5324 14.5353 11.4962 14.5703 11.4587 14.6047C11.4314 14.6297 11.4041 14.6543 11.3752 14.678C11.3352 14.7096 11.2927 14.7412 11.2498 14.7699C11.2197 14.7907 11.1905 14.8119 11.159 14.8308C11.1486 14.8372 11.139 14.8451 11.1273 14.8514V16.0526C11.1273 16.3039 11.2276 16.5449 11.4062 16.7225C11.5848 16.9002 11.8271 17 12.0797 17C12.3323 17 12.5745 16.9002 12.7531 16.7225C12.9317 16.5449 13.0321 16.3039 13.0321 16.0526V11C13.0321 10.7487 12.9317 10.5078 12.7531 10.3301C12.5745 10.1524 12.3323 10.0526 12.0797 10.0526C11.8271 10.0526 11.5848 10.1524 11.4062 10.3301C11.2276 10.5078 11.1273 10.7487 11.1273 11V11.9474C11.3799 11.9474 11.6221 12.0472 11.8007 12.2248C11.9793 12.4025 12.0797 12.6435 12.0797 12.8947V13.2105C12.0793 13.2993 12.0726 13.3879 12.0597 13.4758Z" fill="url(#paint4_linear_336_6385)"/>
<path d="M12.0597 13.4758C12.0555 13.5045 12.0479 13.532 12.0425 13.5604C12.0314 13.6182 12.02 13.676 12.0038 13.7325C11.9943 13.7641 11.9819 13.7957 11.9721 13.8273C11.9546 13.8778 11.9365 13.9277 11.9149 13.976C11.9003 14.0076 11.8832 14.0392 11.8673 14.0707C11.8438 14.1162 11.8197 14.1611 11.7927 14.2046C11.7733 14.2362 11.7527 14.2653 11.7317 14.2953C11.7025 14.3363 11.6724 14.3764 11.64 14.4153C11.6165 14.4437 11.5924 14.4715 11.567 14.4983C11.5324 14.5353 11.4962 14.5703 11.4587 14.6047C11.4314 14.6297 11.4041 14.6543 11.3752 14.678C11.3352 14.7096 11.2927 14.7412 11.2498 14.7699C11.2197 14.7907 11.1905 14.8119 11.159 14.8308C11.1486 14.8372 11.139 14.8451 11.1273 14.8514V16.0526C11.1273 16.3039 11.2276 16.5449 11.4062 16.7225C11.5848 16.9002 11.8271 17 12.0797 17C12.3323 17 12.5745 16.9002 12.7531 16.7225C12.9317 16.5449 13.0321 16.3039 13.0321 16.0526V11C13.0321 10.7487 12.9317 10.5078 12.7531 10.3301C12.5745 10.1524 12.3323 10.0526 12.0797 10.0526C11.8271 10.0526 11.5848 10.1524 11.4062 10.3301C11.2276 10.5078 11.1273 10.7487 11.1273 11V11.9474C11.3799 11.9474 11.6221 12.0472 11.8007 12.2248C11.9793 12.4025 12.0797 12.6435 12.0797 12.8947V13.2105C12.0793 13.2993 12.0726 13.3879 12.0597 13.4758Z" fill="url(#paint5_linear_336_6385)"/>
<path d="M8.5873 5.94737V11.9474H10.4921V5.94737C10.4921 5.69611 10.3917 5.45514 10.2131 5.27748C10.0345 5.09981 9.79227 5 9.53968 5C9.2871 5 9.04485 5.09981 8.86625 5.27748C8.68764 5.45514 8.5873 5.69611 8.5873 5.94737Z" fill="url(#paint6_linear_336_6385)"/>
<path d="M8.5873 5.94737V11.9474H10.4921V5.94737C10.4921 5.69611 10.3917 5.45514 10.2131 5.27748C10.0345 5.09981 9.79227 5 9.53968 5C9.2871 5 9.04485 5.09981 8.86625 5.27748C8.68764 5.45514 8.5873 5.69611 8.5873 5.94737Z" fill="url(#paint7_linear_336_6385)"/>
<defs>
<linearGradient id="paint0_linear_336_6385" x1="7" y1="5" x2="18.4137" y2="5.41252" gradientUnits="userSpaceOnUse">
<stop stop-color="#2A113C"/>
<stop offset="1" stop-color="#311858"/>
</linearGradient>
<linearGradient id="paint1_linear_336_6385" x1="7" y1="5" x2="18.4137" y2="5.41252" gradientUnits="userSpaceOnUse">
<stop stop-color="#380564"/>
<stop offset="1" stop-color="#5B2891"/>
</linearGradient>
<linearGradient id="paint2_linear_336_6385" x1="7" y1="5" x2="18.4137" y2="5.41252" gradientUnits="userSpaceOnUse">
<stop stop-color="#2A113C"/>
<stop offset="1" stop-color="#311858"/>
</linearGradient>
<linearGradient id="paint3_linear_336_6385" x1="7" y1="5" x2="18.4137" y2="5.41252" gradientUnits="userSpaceOnUse">
<stop stop-color="#380564"/>
<stop offset="1" stop-color="#5B2891"/>
</linearGradient>
<linearGradient id="paint4_linear_336_6385" x1="7" y1="5" x2="18.4137" y2="5.41252" gradientUnits="userSpaceOnUse">
<stop stop-color="#2A113C"/>
<stop offset="1" stop-color="#311858"/>
</linearGradient>
<linearGradient id="paint5_linear_336_6385" x1="7" y1="5" x2="18.4137" y2="5.41252" gradientUnits="userSpaceOnUse">
<stop stop-color="#380564"/>
<stop offset="1" stop-color="#5B2891"/>
</linearGradient>
<linearGradient id="paint6_linear_336_6385" x1="7" y1="5" x2="18.4137" y2="5.41252" gradientUnits="userSpaceOnUse">
<stop stop-color="#2A113C"/>
<stop offset="1" stop-color="#311858"/>
</linearGradient>
<linearGradient id="paint7_linear_336_6385" x1="7" y1="5" x2="18.4137" y2="5.41252" gradientUnits="userSpaceOnUse">
<stop stop-color="#380564"/>
<stop offset="1" stop-color="#5B2891"/>
</linearGradient>
</defs>
</svg>
