<svg width="27" height="36" viewBox="0 0 27 36" fill="none" xmlns="http://www.w3.org/2000/svg">
<path d="M6.17143 0V13.8325C7.61786 11.2207 11.6679 9.86651 14.3679 9.86651C21.6 9.86651 27 14.3161 27 22.9251C27 31.1472 21.5036 35.9838 14.175 35.9838C10.9929 36.1772 7.90714 34.6295 6.17143 32.0178L5.78571 35.4034H0V0H6.17143ZM6.55714 22.9251C6.46071 26.8911 9.54643 30.1799 13.5 30.2767C17.4536 30.3734 20.7321 27.278 20.8286 23.3121C20.8286 23.2153 20.8286 23.1186 20.8286 22.9251C21.0214 19.1526 18.1286 15.8638 14.3679 15.6703C14.175 15.6703 13.9821 15.6703 13.7893 15.6703C9.83571 15.5736 6.65357 18.7657 6.55714 22.6349C6.55714 22.7317 6.55714 22.8284 6.55714 22.9251Z" fill="#403F3F"/>
</svg>
