<svg width="26" height="27" viewBox="0 0 26 27" fill="none" xmlns="http://www.w3.org/2000/svg">
<path d="M22.117 18.9455H15.5264V9.04121C15.5264 8.49648 15.9501 8.05078 16.4679 8.05078H20.234C20.5164 8.05078 20.7989 8.19935 20.9872 8.44695L23.8117 12.2601C23.953 12.4582 24.0001 12.6563 24.0001 12.8544V16.9647C24.0001 18.0541 23.1527 18.9455 22.117 18.9455Z" fill="#FFC107"/>
<path d="M4.93439 18.9088H15.7535V7.59796C15.7535 6.51606 14.8683 5.63086 13.7864 5.63086H2.96729V16.9417C2.96729 18.0236 3.85248 18.9088 4.93439 18.9088Z" fill="#9575CD"/>
<path d="M1 5.63086H5.91776V6.61441H1V5.63086ZM1 8.08974H5.91776V9.07329H1V8.08974ZM1 10.5486H5.91776V11.5322H1V10.5486ZM1 13.0075H5.91776V13.9911H1V13.0075Z" fill="#9575CD"/>
<path d="M3.4209 6.8418H10.6841V7.8387H3.4209V6.8418ZM3.4209 9.33406H8.86827V10.331H3.4209V9.33406ZM3.4209 11.8263H7.05248V12.8232H3.4209V11.8263ZM3.4209 14.3186H5.23669V15.3155H3.4209V14.3186Z" fill="#7E57C2"/>
<path d="M20.1796 21.367C21.5376 21.367 22.6385 20.2661 22.6385 18.9081C22.6385 17.5501 21.5376 16.4492 20.1796 16.4492C18.8216 16.4492 17.7207 17.5501 17.7207 18.9081C17.7207 20.2661 18.8216 21.367 20.1796 21.367Z" fill="#37474F"/>
<path d="M8.86855 21.367C10.2266 21.367 11.3274 20.2661 11.3274 18.9081C11.3274 17.5501 10.2266 16.4492 8.86855 16.4492C7.51055 16.4492 6.40967 17.5501 6.40967 18.9081C6.40967 20.2661 7.51055 21.367 8.86855 21.367Z" fill="#37474F"/>
<path d="M20.1796 20.1386C20.8586 20.1386 21.4091 19.5881 21.4091 18.9091C21.4091 18.2301 20.8586 17.6797 20.1796 17.6797C19.5006 17.6797 18.9502 18.2301 18.9502 18.9091C18.9502 19.5881 19.5006 20.1386 20.1796 20.1386Z" fill="#78909C"/>
<path d="M8.8686 20.1386C9.5476 20.1386 10.098 19.5881 10.098 18.9091C10.098 18.2301 9.5476 17.6797 8.8686 17.6797C8.1896 17.6797 7.63916 18.2301 7.63916 18.9091C7.63916 19.5881 8.1896 20.1386 8.8686 20.1386Z" fill="#78909C"/>
<path d="M22.2851 14.1038H20.4693C20.318 14.1038 20.2171 14.0554 20.1162 13.9586L19.4101 13.2807C19.3092 13.1838 19.2083 13.1354 19.057 13.1354H17.2412C16.9386 13.1354 16.7368 12.9417 16.7368 12.6512V9.74593C16.7368 9.4554 16.9386 9.26172 17.2412 9.26172H20.0153C20.1666 9.26172 20.318 9.31014 20.4188 9.4554L22.6886 12.0701C22.739 12.167 22.7894 12.2638 22.7894 12.3607V13.6196C22.7894 13.9101 22.5877 14.1038 22.2851 14.1038Z" fill="#455A64"/>
</svg>
