<svg width="26" height="27" viewBox="0 0 26 27" fill="none" xmlns="http://www.w3.org/2000/svg">
<path d="M13 24.9243C19.0751 24.9243 24 19.81 24 13.5012C24 7.19241 19.0751 2.07812 13 2.07812C6.92487 2.07812 2 7.19241 2 13.5012C2 19.81 6.92487 24.9243 13 24.9243Z" fill="#DD2E44"/>
<path d="M13 21.8068C17.4183 21.8068 21 18.0873 21 13.4991C21 8.91089 17.4183 5.19141 13 5.19141C8.58172 5.19141 5 8.91089 5 13.4991C5 18.0873 8.58172 21.8068 13 21.8068Z" fill="white"/>
<path d="M13 19.7311C16.3137 19.7311 19 16.9415 19 13.5003C19 10.0591 16.3137 7.26953 13 7.26953C9.68629 7.26953 7 10.0591 7 13.5003C7 16.9415 9.68629 19.7311 13 19.7311Z" fill="#DD2E44"/>
<path d="M13 17.6534C15.2091 17.6534 17 15.7937 17 13.4995C17 11.2054 15.2091 9.3457 13 9.3457C10.7909 9.3457 9 11.2054 9 13.4995C9 15.7937 10.7909 17.6534 13 17.6534Z" fill="white"/>
<path d="M13 15.5757C14.1046 15.5757 15 14.6459 15 13.4988C15 12.3517 14.1046 11.4219 13 11.4219C11.8954 11.4219 11 12.3517 11 13.4988C11 14.6459 11.8954 15.5757 13 15.5757Z" fill="#DD2E44"/>
<path opacity="0.2" d="M13.383 13.5L21 20.7384C21 20.7384 19.4661 22.8174 16.4277 23.8846L13 13.585L13.383 13.5Z" fill="black"/>
<path d="M13.3902 14.5379C13.3131 14.5384 13.2376 14.4912 13.1734 14.4024C13.1092 14.3135 13.0592 14.187 13.0296 14.0389C13.0001 13.8908 12.9924 13.7278 13.0076 13.5706C13.0227 13.4134 13.0601 13.2691 13.1148 13.1561L13.3351 12.6982C13.4081 12.5464 13.5071 12.461 13.6104 12.4609C13.7137 12.4609 13.8128 12.5461 13.8858 12.6978C13.9589 12.8495 14 13.0554 14 13.2701C14 13.4847 13.959 13.6907 13.886 13.8425L13.6653 14.3004C13.6293 14.3758 13.5865 14.4357 13.5392 14.4765C13.492 14.5172 13.4414 14.5381 13.3902 14.5379Z" fill="#FFAC33"/>
<path d="M17.1031 6.25024C16.8711 7.49277 17.1031 9.05384 17.1031 9.05384L21.1628 4.63837C21.3303 3.76938 20.8589 2.28839 20.1741 2.10551C19.4892 1.92262 17.8265 2.58542 17.1031 6.25024ZM19.9824 9.24031C18.7859 9.48116 17.2826 9.24031 17.2826 9.24031L21.5346 5.02445C22.3714 4.85053 23.7975 5.34001 23.9736 6.05122C24.1497 6.76243 23.5115 8.48906 19.9824 9.24031Z" fill="#55ACEE"/>
<path d="M21.7879 4.97977L14.8018 13.1901C14.5842 13.4169 13.7961 13.7428 13.293 13.2189C12.7905 12.695 13.0411 11.9155 13.2587 11.688L21.197 4.36315C21.197 4.36315 21.6033 3.96523 21.8936 4.2679C22.184 4.57057 21.7879 4.97977 21.7879 4.97977Z" fill="#3A87C2"/>
</svg>
