<svg width="26" height="27" viewBox="0 0 26 27" fill="none" xmlns="http://www.w3.org/2000/svg">
<path d="M13 21C17.9706 21 22 16.9706 22 12C22 7.02944 17.9706 3 13 3C8.02944 3 4 7.02944 4 12C4 16.9706 8.02944 21 13 21Z" fill="#FFE49D"/>
<path d="M19 12.0328C19 8.4563 15.9514 5.62297 12.3024 6.041C9.53096 6.36614 7.31382 8.59564 7.03668 11.3825C6.80573 13.5191 7.68335 15.4235 9.16144 16.6312C9.80811 17.1885 10.2238 17.9781 10.2238 18.8607V19H15.7667V18.9536C15.7667 18.1175 16.1362 17.2814 16.7829 16.724C18.1224 15.6093 19 13.9372 19 12.0328Z" fill="#FBC02D"/>
<path d="M15.8109 11.0211L14.5196 10.0712C14.3905 9.97625 14.1753 9.97625 14.0461 10.0712L12.97 10.8311L11.937 10.0712C11.8078 9.97625 11.5926 9.97625 11.4635 10.0712L10.1722 11.0211C10.0861 11.1161 10 11.2111 10 11.3536C10 11.496 10 11.6385 10.0861 11.7335L11.7218 13.9657V19H12.5826V13.7757C12.5826 13.6807 12.5396 13.5858 12.4966 13.4908L11.0761 11.5435L11.7218 11.0686L12.7548 11.8285C12.8839 11.9235 13.0992 11.9235 13.2283 11.8285L14.2614 11.0686L14.907 11.5435L13.4866 13.4908C13.4435 13.5858 13.4005 13.6807 13.4005 13.7757V19H14.2614V13.9657L15.897 11.7335C15.9831 11.6385 16.0262 11.496 15.9831 11.3536C15.9401 11.2111 15.897 11.0686 15.8109 11.0211Z" fill="#FFE49D"/>
<path d="M13 23C13.5523 23 14 22.5523 14 22C14 21.4477 13.5523 21 13 21C12.4477 21 12 21.4477 12 22C12 22.5523 12.4477 23 13 23Z" fill="#5C6BC0"/>
<path d="M14 22H12C10.9 22 10 21.2 10 20.2222V18H16V20.2222C16 21.2 15.1 22 14 22Z" fill="#9FA8DA"/>
<path d="M16 20.6216L10.2 21.2703C10.35 21.5541 10.65 21.8378 11 22L15.7 21.473C15.9 21.2297 16 20.9459 16 20.6216ZM10 19.6892V20.5L16 19.8108V19L10 19.6892Z" fill="#5C6BC0"/>
</svg>
