<svg width="26" height="27" viewBox="0 0 26 27" fill="none" xmlns="http://www.w3.org/2000/svg">
<path d="M5.56152 8.21714L8.00327 5.77539L8.59779 6.36991L6.15605 8.81166L5.56152 8.21714ZM9.82798 8.83118L12.27 6.39003L12.8645 6.98455L10.4225 9.4257L9.82798 8.83118ZM18.202 20.8589L20.6444 18.4177L21.2389 19.0125L18.7966 21.4537L18.202 20.8589ZM17.5922 16.566L20.0346 14.1248L20.6291 14.7197L18.1864 17.1608L17.5922 16.566Z" fill="#ACB8BF"/>
<path d="M20.331 22.6137L18.9197 9.97263L17.0281 8.08096L4.38697 6.66972C3.78644 6.60967 3.90654 8.11099 4.59715 8.44128L14.1155 12.8852L18.5594 22.4036C18.8897 23.0942 20.391 23.2143 20.331 22.6137Z" fill="#42ADE2"/>
<path d="M21.8023 6.82029C22.4629 5.52915 21.472 4.53828 20.1808 5.19886C18.5294 6.0396 16.0973 7.93126 13.6351 10.3634C9.79171 14.2068 7.32954 18.0201 8.14026 18.8609C8.95097 19.6716 12.7943 17.2094 16.6377 13.366C19.0699 10.9339 20.9615 8.47174 21.8023 6.82029Z" fill="#DAE3EA"/>
<path d="M10.122 22.465L9.64153 18.0211L8.98095 17.3605L4.53704 16.8801C4.32686 16.8501 4.35688 17.3906 4.59709 17.5107L7.93003 19.072L9.4914 22.405C9.61151 22.6452 10.152 22.6752 10.122 22.465Z" fill="#42ADE2"/>
<path d="M9.4615 18.2596C8.11031 19.6108 6.87923 20.5416 6.69907 20.3314C6.51891 20.1512 7.44973 18.8901 8.77089 17.5389C10.1221 16.1878 11.3532 15.2569 11.5633 15.4671C11.7135 15.6473 10.7827 16.9084 9.4615 18.2596Z" fill="#ACB8BF"/>
<path d="M21.3518 7.30127C21.5019 6.76079 21.4419 6.25035 21.1116 5.89003C20.7813 5.55974 20.2408 5.46966 19.7304 5.64982L18.7095 6.28037C19.2199 6.10021 19.9706 6.37045 20.3009 6.70074C20.6612 7.06106 20.9014 7.78169 20.7212 8.29214L21.3518 7.30127Z" fill="#3E4347"/>
<path d="M19.5093 7.2988L21.207 5.59961L21.3982 5.79058L19.7002 7.49007L19.5093 7.2988Z" fill="#DAE3EA"/>
</svg>
